<?xml version="1.0" encoding="UTF-8"?> <svg xmlns="http://www.w3.org/2000/svg" viewBox="0 0 181 181"><defs><style>.cls-1{fill:#f1f9fe;}.cls-2{fill:#76bcf9;}</style></defs><title>Asset 12</title><g id="Layer_2" data-name="Layer 2"><g id="Layer_1-2" data-name="Layer 1"><circle class="cls-1" cx="90.5" cy="90.5" r="90.5"></circle><path class="cls-2" d="M65.5,132v6.73c0,2-.55,2.56-2.6,2.56H45.77c-2,0-2.52-.56-2.52-2.54V99.26c0-2,.53-2.5,2.53-2.5H62.91c2.1,0,2.59.5,2.59,2.64v2.92c.61,0,1.16,0,1.7,0a31.82,31.82,0,0,0,14.19-2.27,53.42,53.42,0,0,1,20.09-3.31c3.53.06,7.06,0,10.59,0a7.4,7.4,0,0,1,1.86,14.53,9.77,9.77,0,0,1-2.35.3c-2.9,0-5.81,0-8.71,0a1.84,1.84,0,1,0-.1,3.67c3.53,0,7.06,0,10.59,0a16.13,16.13,0,0,0,7.94-2.46q13-7.65,25.92-15.26c3-1.74,6.66-.42,7.2,2.81a29.56,29.56,0,0,1,0,7.28,4.09,4.09,0,0,1-1.52,2.45c-7.35,5.86-14.6,11.87-22.2,17.4-10.48,7.64-22.39,10.79-35.35,10a59.9,59.9,0,0,1-18.91-4.7,9.79,9.79,0,0,0-4-.73C70.14,132.08,67.87,132,65.5,132Zm.06-3.73c2.38,0,4.71.06,7,0a11.45,11.45,0,0,1,4.9.9A56,56,0,0,0,96,133.78c11.25.6,21.81-1.85,31-8.33,8-5.63,15.55-11.92,23.28-17.94a1.57,1.57,0,0,0,.56-1.07c.06-1.55.06-3.11,0-4.66,0-1.09-.81-1.48-1.79-1-.26.14-.51.3-.76.45l-25.32,14.89a18.86,18.86,0,0,1-9,2.85c-3.89.14-7.78.12-11.67.11a5.19,5.19,0,0,1-3.5-1.44,5.58,5.58,0,0,1-1.49-6.07,5.53,5.53,0,0,1,5.28-3.62c2.94,0,5.88,0,8.81,0,2.48,0,4.11-1.49,4.11-3.7s-1.63-3.71-4.09-3.71c-3.3,0-6.6,0-9.9,0-2.34,0-4.69.12-7,.32a50.39,50.39,0,0,0-13.79,3.35,25.24,25.24,0,0,1-11.19,1.83c-1.33-.1-2.68,0-4.08,0Zm-3.82-27.75H47v37H61.74Z"></path><path class="cls-2" d="M98.89,93H66.21c-2,0-2.54-.55-2.54-2.52V52.78c0-1.89.58-2.48,2.49-2.48h65.56c1.91,0,2.49.59,2.49,2.48V90.61c0,1.83-.59,2.42-2.44,2.42Zm24.31-3.76c1.56-4.35,2.87-5.66,7.2-7.25a.64.64,0,0,0,.06-.18q0-10,0-20c0-.24-.39-.63-.67-.72a9.18,9.18,0,0,1-5.25-4,31.27,31.27,0,0,1-1.44-3.08H74.66c-.1.31-.19.62-.3.93a9,9,0,0,1-6,6,1.17,1.17,0,0,0-1,1.35c0,6.24,0,12.48,0,18.72v1a9.54,9.54,0,0,1,7.26,7.23ZM70.72,54.1H67.46v3.26A5.58,5.58,0,0,0,70.72,54.1Zm59.7,3.18V54.09h-3.15A4.6,4.6,0,0,0,130.42,57.28Zm-59.82,32a4.24,4.24,0,0,0-3.16-3.09v3.09Zm59.84,0V86.12a4.1,4.1,0,0,0-3.09,3.13Z"></path><path class="cls-2" d="M52.58,107.94h3.59v22.15H52.58Z"></path><path class="cls-2" d="M97.09,85.52V83.87c-4.25-1.61-6.1-4.14-5.45-7.49h3.48a4.14,4.14,0,0,1,.09.46c.1,2.26,1,3.16,3.25,3.17.5,0,1,0,1.49,0a2.72,2.72,0,0,0,1.2-5.16c-2.05-1.06-4.15-2-6.19-3.1a6.39,6.39,0,0,1-.54-11,21,21,0,0,1,2.63-1.2l.1-1.7h3.58l.11,1.8c4,1.29,6.06,4.07,5.39,7.39h-3.5l-.06-1a2.75,2.75,0,0,0-2.82-2.72c-.7,0-1.39,0-2.08,0a2.72,2.72,0,0,0-1.18,5.21l5.75,2.87c2.84,1.42,4.25,3.74,4,6.54s-2.06,4.89-5.17,5.77c-.09,0-.18.06-.33.11l-.09,1.71Z"></path></g></g></svg> 