<?xml version="1.0" encoding="UTF-8"?> <svg xmlns="http://www.w3.org/2000/svg" viewBox="0 0 78.16 66.1"><defs><style>.cls-1{fill:#76bcf9;}</style></defs><title>Asset 5</title><g id="Layer_2" data-name="Layer 2"><g id="Layer_1-2" data-name="Layer 1"><path class="cls-1" d="M39.13,14.07c11.53,0,23.06,0,34.6,0a4.24,4.24,0,0,1,4.43,4.44c0,14.4,0,28.8,0,43.19,0,2.81-1.62,4.43-4.42,4.43H4.45C1.6,66.1,0,64.49,0,61.63V18.36a4,4,0,0,1,3.07-4.18,6.45,6.45,0,0,1,1.46-.1ZM3.93,62.15H74.18V33.37c-1.47.79-2.84,1.64-4.3,2.31-8.76,4-18,5.75-27.6,6.17A78.7,78.7,0,0,1,22.15,40.1c-6.32-1.36-12.47-3.16-18-6.73a1.51,1.51,0,0,0-.26-.07ZM74.18,18H3.88v.94c0,2.74,0,5.49,0,8.23a2.17,2.17,0,0,0,.94,2,36.57,36.57,0,0,0,4.43,2.69,71.63,71.63,0,0,0,25.19,6,74.33,74.33,0,0,0,21.8-1.76,54.65,54.65,0,0,0,14.2-5A22.34,22.34,0,0,0,73.49,29a1.93,1.93,0,0,0,.72-1.28c.06-3.15,0-6.31,0-9.47A1.07,1.07,0,0,0,74.18,18Z"></path><path class="cls-1" d="M50.18,3.93H27.94v.83c0,1.77,0,3.53,0,5.29a1.91,1.91,0,0,1-3.82.1c-.05-2.2-.1-4.41,0-6.61a3.87,3.87,0,0,1,4-3.53c2.4,0,4.8,0,7.2,0H49.65c2.8,0,4.4,1.61,4.4,4.43V9.73a1.95,1.95,0,1,1-3.87,0c0-1.66,0-3.32,0-5Z"></path><path class="cls-1" d="M39.3,51.23l-6-.27a2.21,2.21,0,0,1-1.81-.8,1.83,1.83,0,0,1-.19-2.07,1.79,1.79,0,0,1,1.81-1,75.44,75.44,0,0,0,11.74.06A1.93,1.93,0,1,1,45.08,51C43.18,51.07,41.27,51.14,39.3,51.23Z"></path></g></g></svg> 