<?xml version="1.0" encoding="UTF-8"?> <svg xmlns="http://www.w3.org/2000/svg" viewBox="0 0 78.44 89.56"><defs><style>.cls-1{fill:#76bcf9;}</style></defs><title>Asset 7</title><g id="Layer_2" data-name="Layer 2"><g id="Layer_1-2" data-name="Layer 1"><path class="cls-1" d="M56,45c0,3.49,0,7,0,10.45a6.9,6.9,0,0,1-4,6.7A3.49,3.49,0,0,0,50,65.66c.06,5.58,0,11.16,0,16.74a6.78,6.78,0,0,1-7.1,7.15q-3.72,0-7.43,0a6.79,6.79,0,0,1-7-7.07c0-5.72,0-11.43,0-17.15a3,3,0,0,0-1.78-3c-3-1.46-4.27-3.88-4.24-7.18.06-6.91,0-13.83,0-20.74a6.84,6.84,0,0,1,5.05-7,8.39,8.39,0,0,1,2.18-.26q9.59,0,19.18,0A6.82,6.82,0,0,1,56,34.2V45Zm-3.92,0c0-3.53,0-7.07,0-10.61,0-2.24-1.12-3.34-3.38-3.34H29.91c-2.48,0-3.54,1.05-3.54,3.52,0,6.83,0,13.67,0,20.5a3.72,3.72,0,0,0,2.21,3.79,6.67,6.67,0,0,1,3.81,6.43q0,8.61,0,17.23a2.87,2.87,0,0,0,3.1,3.11c2.42,0,4.84,0,7.26,0s3.35-1.09,3.35-3.35c0-5.56,0-11.11,0-16.66a7.06,7.06,0,0,1,4.1-6.94,3.2,3.2,0,0,0,1.91-3.21C52.05,52,52.07,48.5,52.07,45Z"></path><path class="cls-1" d="M78.43,46.17c0,3.37,0,6.75,0,10.12a2.23,2.23,0,0,1-1.27,2.18c-1.32.7-2.6,1.47-3.93,2.17a1.15,1.15,0,0,0-.71,1.19c0,5,0,10.07,0,15.1a6.82,6.82,0,0,1-7.2,7.23c-2.61,0-5.23,0-7.84,0a2,2,0,0,1-2.22-2,2,2,0,0,1,2.26-2h7.84A2.91,2.91,0,0,0,68.63,77c0-5.53,0-11,0-16.58a2.54,2.54,0,0,1,1.51-2.54c1.28-.66,2.51-1.42,3.79-2.09a1,1,0,0,0,.61-1c0-6.18,0-12.36,0-18.54a2.89,2.89,0,0,0-3.07-3.07c-3.05,0-6.1,0-9.15,0a1.93,1.93,0,0,1-2-2.49,1.72,1.72,0,0,1,1.64-1.38c3.56,0,7.14-.17,10.68.12a6.49,6.49,0,0,1,5.81,6.68C78.44,39.47,78.43,42.82,78.43,46.17Z"></path><path class="cls-1" d="M6,70.36c0-2.4,0-4.79,0-7.18a3.08,3.08,0,0,0-1.78-3A7.27,7.27,0,0,1,0,53c.07-5.5,0-11,0-16.49a6.84,6.84,0,0,1,7.2-7.25q4.44,0,8.9,0a2,2,0,0,1,2.11,2.15,1.94,1.94,0,0,1-2.08,1.76H7.34c-2.3,0-3.4,1.1-3.4,3.41,0,5.6,0,11.21,0,16.82a3.05,3.05,0,0,0,1.78,3A7.17,7.17,0,0,1,10,63.64c-.07,4.38,0,8.76,0,13.14,0,2.31,1.08,3.38,3.41,3.39h7.84A1.91,1.91,0,0,1,23,81.26a1.63,1.63,0,0,1-.16,1.92,2.61,2.61,0,0,1-1.55.86c-3.1.06-6.21.13-9.3-.07a6.48,6.48,0,0,1-6-6.26c-.09-2.45,0-4.9,0-7.35Z"></path><path class="cls-1" d="M63.83,23.1A10.23,10.23,0,0,1,53.62,12.69,10.24,10.24,0,0,1,63.8,2.25,10.12,10.12,0,0,1,74,12.68,10.23,10.23,0,0,1,63.83,23.1ZM70.1,12.65a6.28,6.28,0,1,0-12.56,0,6.28,6.28,0,1,0,12.56,0Z"></path><path class="cls-1" d="M29,10.4a10.18,10.18,0,1,1,20.36,0A10.18,10.18,0,1,1,29,10.4Zm16.44,0a6.27,6.27,0,1,0-12.52,0,6.26,6.26,0,1,0,12.52,0Z"></path><path class="cls-1" d="M14.65,23.1A10.24,10.24,0,0,1,4.43,12.54a10.2,10.2,0,1,1,20.4.36A10.25,10.25,0,0,1,14.65,23.1Zm6.13-10.39a6.27,6.27,0,1,0-12.54-.07,6.27,6.27,0,1,0,12.54.07Z"></path></g></g></svg> 