<?xml version="1.0" encoding="UTF-8"?> <svg xmlns="http://www.w3.org/2000/svg" viewBox="0 0 87.26 55.16"><defs><style>.cls-1{fill:#76bcf9;}</style></defs><title>Asset 8</title><g id="Layer_2" data-name="Layer 2"><g id="Layer_1-2" data-name="Layer 1"><path class="cls-1" d="M8.19,22.43V26c0,1.64,0,3.28,0,4.92a.86.86,0,0,0,.62,1,6.4,6.4,0,0,1,3.88,6.33A6.3,6.3,0,0,1,7.6,43.92,6.31,6.31,0,0,1,4,31.86a.86.86,0,0,0,.65-1c0-3.11,0-6.22,0-9.33,0-.6-.17-.88-.74-1a1.75,1.75,0,0,1-1.48-1.68,1.67,1.67,0,0,1,1-1.71c1.46-.67,2.92-1.35,4.41-2L44,.25a2.68,2.68,0,0,1,2.25,0q19.84,8.22,39.7,16.41c.76.31,1.35.69,1.35,1.61a1.82,1.82,0,0,1-1.37,1.86c-3.92,1.65-7.83,3.31-11.76,4.94a1,1,0,0,0-.72,1.06c0,5.73,0,11.46,0,17.19a3.19,3.19,0,0,1-.85,2.26,26,26,0,0,1-9.46,6.53,42.23,42.23,0,0,1-18.83,3A61.5,61.5,0,0,1,30,52.85a30,30,0,0,1-10.46-5.14l-.23-.18a5.34,5.34,0,0,1-2.35-4.86c.11-5.38-.05-10.77-.1-16.16,0-.35,0-.63-.42-.8-2.63-1.05-5.26-2.13-7.88-3.2Zm72.8-4-.68-.3Q63,11,45.6,3.84a1.66,1.66,0,0,0-1.16,0Q27,11.08,9.56,18.32l-.77.35.77.34Q26.89,26.15,44.19,33.3a1.61,1.61,0,0,0,1.39,0l28.52-12Zm-17.9,11.4c-.32.13-.6.22-.86.34Q54.1,33.53,46,36.93a2.66,2.66,0,0,1-2.24,0q-11.23-4.68-22.49-9.31c-.22-.09-.45-.16-.79-.28v.87c.06,4.8.14,9.6.13,14.4a2.5,2.5,0,0,0,1,2.16A24.79,24.79,0,0,0,29.8,49a55.67,55.67,0,0,0,20.87,2.45,33.92,33.92,0,0,0,11.91-2.91,1.05,1.05,0,0,0,.71-1.15c-.07-5.66-.11-11.32-.17-17C63.12,30.25,63.1,30.06,63.09,29.81ZM66.65,46l.19.11c.87-.75,1.76-1.47,2.57-2.28a1.77,1.77,0,0,0,.47-1.14c0-5,0-10,0-15.05,0-.23,0-.45,0-.75-.92.4-1.73.79-2.58,1.1a1,1,0,0,0-.73,1.15c0,5.41.07,10.82.1,16.23C66.65,45.59,66.65,45.8,66.65,46ZM9.24,37.77A2.83,2.83,0,0,0,6.43,35a2.83,2.83,0,1,0,2.81,2.8Z"></path></g></g></svg> 