<svg xmlns="http://www.w3.org/2000/svg" viewBox="0 0 512.71868 132.51425"><defs><style>.cls-1{isolation:isolate;}.cls-2{fill:#201b51;}.cls-3,.cls-4,.cls-5{fill:#877b77;}.cls-3{fill-rule:evenodd;}.cls-4{mix-blend-mode:multiply;}</style></defs><g class="cls-1"><g id="Layer_1" data-name="Layer 1"><path class="cls-2" d="M146.68059,47.3247,127.91727,89.60617,107.688,47.3247H92.161l29.58725,62.15773h7.02964L156.34048,47.3247Zm39.07605,22.28771a15.21672,15.21672,0,0,0-5.23631-2.248,32.12272,32.12272,0,0,0-7.5982-.787,30.51832,30.51832,0,0,0-6.83337.742,22.87762,22.87762,0,0,0-5.70958,2.06786,12.27,12.27,0,0,0-3.90958,3.14722,6.26777,6.26777,0,0,0-1.4398,3.97846,4.92062,4.92062,0,0,0,1.61829,3.754,6.019,6.019,0,0,0,4.27151,1.506,6.88238,6.88238,0,0,0,2.809-.49462A4.34044,4.34044,0,0,0,165.46,79.95159a4.9585,4.9585,0,0,0,.87617-1.9106,10.05118,10.05118,0,0,0,.24737-2.24716,6.87,6.87,0,0,1,.24738-1.86647,3.84433,3.84433,0,0,1,.85494-1.55015,4.05008,4.05008,0,0,1,1.61829-1.05646,7.09936,7.09936,0,0,1,2.49447-.38248,5.141,5.141,0,0,1,3.97846,1.64119q1.505,1.64163,1.50695,5.55164v4.09147l-1.34969.31446q-2.51742.80952-5.05806,1.64033-2.53854.8334-4.92178,1.84345a40.10853,40.10853,0,0,0-4.473,2.22506,18.12485,18.12485,0,0,0-3.641,2.7427,12.00931,12.00931,0,0,0-2.45028,3.41663,9.7962,9.7962,0,0,0-.89938,4.27083,10.39558,10.39558,0,0,0,.85322,4.20367,9.70236,9.70236,0,0,0,2.42756,3.37157,11.37616,11.37616,0,0,0,3.84416,2.22506,15.12684,15.12684,0,0,0,5.10373.80915,18.40873,18.40873,0,0,0,3.618-.31446,12.86043,12.86043,0,0,0,2.74184-.85421,11.595,11.595,0,0,0,2.18167-1.28167q.9858-.74064,2.02293-1.59527v3.28152h12.497V77.77158a10.60279,10.60279,0,0,0-.98924-4.63034A9.20051,9.20051,0,0,0,185.75664,69.61241ZM177.284,99.2157q-1.88973,1.39389-3.46273,2.33727a5.93092,5.93092,0,0,1-3.05611.94425,2.468,2.468,0,0,1-1.4398-.47172,4.58991,4.58991,0,0,1-1.1907-1.25872,6.96282,6.96282,0,0,1-.83223-1.84344,7.74152,7.74152,0,0,1-.31453-2.22507,4.94228,4.94228,0,0,1,.92234-2.83275,12.29113,12.29113,0,0,1,2.40436-2.56255,21.83526,21.83526,0,0,1,3.32645-2.22506q1.84456-1.01088,3.64295-1.77543ZM201.0644,63.819v44.70244h12.31853V47.56146A16.887,16.887,0,0,0,201.0644,63.819Zm22.65685,0v44.70244H236.04V47.56146A16.88725,16.88725,0,0,0,223.72125,63.819Zm54.24062,32.00216a13.55087,13.55087,0,0,1-2.92182,2.85492,15.01591,15.01591,0,0,1-3.66418,1.93355,11.7548,11.7548,0,0,1-4.04537.719,7.30614,7.30614,0,0,1-4.3389-1.39382,12.757,12.757,0,0,1-3.41656-3.75411,20.33077,20.33077,0,0,1-2.29327-5.46146,29.60323,29.60323,0,0,1-.96628-6.51885h28.4126a16.85375,16.85375,0,0,0-5.37234-12.43,18.7803,18.7803,0,0,0-6.09126-3.73195,23.09927,23.09927,0,0,0-16.61152.35951,19.85706,19.85706,0,0,0-6.7203,4.76545,21.44986,21.44986,0,0,0-4.3157,7.17074,25.732,25.732,0,0,0-1.52818,8.99122,18.657,18.657,0,0,0,1.63928,7.70954,20.13376,20.13376,0,0,0,4.51913,6.40664,22.072,22.072,0,0,0,6.69907,4.36088,20.87045,20.87045,0,0,0,8.22527,1.61823,19.005,19.005,0,0,0,6.722-1.25871,23.85636,23.85636,0,0,0,6.20433-3.46168,24.541,24.541,0,0,0,4.9677-5.14793,20.11087,20.11087,0,0,0,3.05637-6.27061l-6.38455-.94431A10.76383,10.76383,0,0,1,277.96187,95.82111ZM257.17043,76.625a9.32693,9.32693,0,0,1,1.55114-2.56248,7.09732,7.09732,0,0,1,2.02293-1.64033,4.78381,4.78381,0,0,1,2.27006-.58473,6.587,6.587,0,0,1,2.7648.58473,6.9945,6.9945,0,0,1,2.27006,1.66329,8.83867,8.83867,0,0,1,1.61829,2.58458,10.55,10.55,0,0,1,.76483,3.30448H256.36141A11.48682,11.48682,0,0,1,257.17043,76.625Zm68.82773-9.86745-11.4194,25.31037L301.587,66.75756H288.415l20.00537,38.84182-1.43807,3.28152q-.4055.94468-.96628,2.09076-.56438,1.14614-1.19243,2.158a11.02677,11.02677,0,0,1-1.28081,1.70828,1.79694,1.79694,0,0,1-1.23687.69694,2.66678,2.66678,0,0,1-1.48374-.38248c-.38884-.25527-.77224-.52468-1.145-.80909a11.12034,11.12034,0,0,0-1.23637-.80914,3.6399,3.6399,0,0,0-1.79851-.38242,7.85385,7.85385,0,0,0-2.81073.42747,5.26416,5.26416,0,0,0-1.77555,1.07856,3.61981,3.61981,0,0,0-.94333,1.461,4.95272,4.95272,0,0,0-.27033,1.5741,3.738,3.738,0,0,0,.652,2.135,6.11166,6.11166,0,0,0,1.75408,1.68625,9.09434,9.09434,0,0,0,2.56162,1.12354,11.50466,11.50466,0,0,0,3.07932.40458,13.44218,13.44218,0,0,0,4.38285-.76409,18.86745,18.86745,0,0,0,4.29471-2.13582,18.52134,18.52134,0,0,0,3.77528-3.34867,18.75267,18.75267,0,0,0,2.832-4.40593l20.68009-45.63008Z" transform="translate(-15.20417 -11.35161)"/><path class="cls-2" d="M39.78358,87.50548A167.98451,167.98451,0,0,1,44.89472,65.1966a61.87088,61.87088,0,0,1-9.50461,1.98263C37.70634,76.7753,39.84258,86.75009,39.78358,87.50548Zm2.32313-27.17074S35.19706,26.497,26.78835,19.192c-5.64441-5.61428-11.8944-6.01633-11.57222-5.93831,5.8535,1.349,14.198,29.8182,19.31954,50.43738a62.1887,62.1887,0,0,0,11.66233-2.535C55.24662,31.05585,66.711,20.26821,74.13757,16.747,69.044,18.73947,52.49737,25.688,42.10671,60.33474Z" transform="translate(-15.20417 -11.35161)"/><path class="cls-3" d="M53.27973,32.58428a97.49972,97.49972,0,0,0-16.29947,7.97278q.0663.24672.1311.49345A98.607,98.607,0,0,1,53.27973,32.58428ZM39.54534,114.21294S47.75655,83.884,56.15242,60.84171a52.27124,52.27124,0,0,1-7.36836,3.02421A229.38018,229.38018,0,0,0,39.54534,114.21294ZM98.71243,12.68414s-10.78665-6.844-28.84044,10.489C61.15419,31.54133,54.699,45.73973,50.09252,59.73835c-14.19532,5.26587-26.54249,5.3453-28.51185.89617h.00025c-1.37907-3.02952,2.03429-8.48987,8.40377-14.1q-.16-.557-.32119-1.11324C17.10327,54.86,17.80021,60.78061,17.80021,60.78061,17.66,69.46144,38.09468,67.71323,54.959,60.07929,68.78918,53.9165,78.893,44.19723,81.8333,37.52692c-1.33883,2.4559-5.78167,9.87314-24.37736,19.08661C74.13017,4.80418,98.71243,12.68414,98.71243,12.68414Z" transform="translate(-15.20417 -11.35161)"/><path class="cls-2" d="M338.4031,142.24485a5.95013,5.95013,0,0,1,0-11.87539,4.95965,4.95965,0,0,1,4.075,2.12514l1.53411-.8547a6.57093,6.57093,0,0,0-5.6091-2.89194,7.55975,7.55975,0,0,0,0,15.1179,6.6446,6.6446,0,0,0,5.63083-2.89194l-1.55584-.8547A4.90375,4.90375,0,0,1,338.4031,142.24485Zm22.35048-8.8521a4.25633,4.25633,0,0,0-4.57912-4.40384h-5.87227v14.61427h1.81852v-5.80611h2.91416l3.72491,5.80611h2.14736l-3.94414-5.95966A4.03848,4.03848,0,0,0,360.75358,133.39275Zm-8.63287,2.80455v-5.58688h3.83452a2.79594,2.79594,0,1,1,0,5.58688Zm15.44822,7.40588h9.575v-1.6215h-7.75646v-5.0393h7.6029v-1.6215h-7.6029v-4.71046h7.75646v-1.62151h-9.575Zm21.40839-14.61427h-4.99585v14.61427h4.99585a7.30945,7.30945,0,1,0,0-14.61427Zm0,12.99277H385.8V130.61042h3.17734a5.68615,5.68615,0,0,1,0,11.37126Zm14.2874,1.6215h1.81851V128.98891h-1.81851Zm8.17368-12.99276h4.62306v12.99276H417.88V130.61042h4.64528v-1.62151H411.4384Zm37.141,7.274c0,2.67321-1.44622,4.36038-4.14115,4.36038s-4.14116-1.68717-4.14116-4.36038v-8.89556h-1.81851v8.9395c0,3.59309,1.9938,5.93745,5.95967,5.93745s5.95966-2.32215,5.95966-5.95966v-8.91729h-1.81851Zm19.45853,2.65148-8.41364-11.547h-1.86246v14.61427h1.81851v-11.788l8.52326,11.788h1.75285V128.98891h-1.81852Zm9.18243,3.06723h1.81852V128.98891h-1.81852ZM493.06262,128.748c-4.33817,0-7.25233,3.24251-7.25233,7.55895s2.91416,7.559,7.25233,7.559c4.31643,0,7.25232-3.24251,7.25232-7.559S497.37905,128.748,493.06262,128.748Zm0,13.49689c-3.28646,0-5.36815-2.54187-5.36815-5.93794,0-3.4178,2.08169-5.93745,5.36815-5.93745,3.26473,0,5.36814,2.51965,5.36814,5.93745C498.43076,139.703,496.32735,142.24485,493.06262,142.24485Zm24.323-13.25594v11.547l-8.41365-11.547h-1.86245v14.61427h1.81851v-11.788l8.52326,11.788h1.75284V128.98891Z" transform="translate(-15.20417 -11.35161)"/><path class="cls-4" d="M348.47343,108.52139H363.4437V77.97384h25.48893V72.7137H363.4437V52.48417h24.64164a10.71769,10.71769,0,0,1,.84877-2.758,12.24361,12.24361,0,0,1,1.45042-2.34041v-.061h-41.9111Zm97.26243-40.99974a9.20038,9.20038,0,0,0-2.56335-1.21372,10.57565,10.57565,0,0,0-3.12327-.44957,11.069,11.069,0,0,0-5.28223,1.30377,19.187,19.187,0,0,0-4.56332,3.41662v-3.0571H417.795v40.99974h12.40865V79.0303q.4929-1.07856,1.07948-2.11292a15.27983,15.27983,0,0,1,1.1907-1.82049,6.54738,6.54738,0,0,1,1.23662-1.25871,2.08683,2.08683,0,0,1,1.25785-.47259,3.83673,3.83673,0,0,1,2.00157.47259q.78433.47169,1.57238,1.0114a14.64842,14.64842,0,0,0,1.73124,1.0114,5.42866,5.42866,0,0,0,2.42731.47167,5.94585,5.94585,0,0,0,2.09169-.35952,5.68036,5.68036,0,0,0,1.7084-.98838,4.48909,4.48909,0,0,0,1.16774-1.55115,4.70406,4.70406,0,0,0,.42747-2.00071,3.98826,3.98826,0,0,0-.62892-2.13581A6.11053,6.11053,0,0,0,445.73586,67.52165Zm33.739,20.88234a25.08952,25.08952,0,0,0-4.406-2.967,56.0622,56.0622,0,0,0-5.07893-2.40529q-1.70921-.71943-3.16931-1.506a14.36366,14.36366,0,0,1-2.54039-1.70834,7.75981,7.75981,0,0,1-1.68544-1.95566,4.28086,4.28086,0,0,1-.60769-2.203,2.85928,2.85928,0,0,1,.47166-1.6412,4.11077,4.11077,0,0,1,1.28254-1.1907,6.34476,6.34476,0,0,1,1.8427-.742,9.27252,9.27252,0,0,1,2.15872-.24731,11.46625,11.46625,0,0,1,1.50522.1122,4.40468,4.40468,0,0,1,1.70828.65189,6.1643,6.1643,0,0,1,1.68532,1.64119,10.04365,10.04365,0,0,1,1.39388,3.0792l7.19382-2.56248a19.0014,19.0014,0,0,0-2.42744-3.37157,12.93056,12.93056,0,0,0-3.14808-2.51749,15.62049,15.62049,0,0,0-4.11277-1.59614,22.71776,22.71776,0,0,0-5.32814-.56177,20.71369,20.71369,0,0,0-6.02411.83118,14.29306,14.29306,0,0,0-4.69737,2.36023,10.73943,10.73943,0,0,0-3.03513,3.687,10.506,10.506,0,0,0-1.07763,4.76545,9.581,9.581,0,0,0,1.1907,4.8326,13.57406,13.57406,0,0,0,3.12512,3.709,24.5135,24.5135,0,0,0,4.31582,2.87694q2.38225,1.25873,4.80871,2.33727a29.87178,29.87178,0,0,1,2.85492,1.43894,12.02748,12.02748,0,0,1,2.31609,1.70828,6.99512,6.99512,0,0,1,1.52806,2.09082,5.98648,5.98648,0,0,1,.53894,2.58458,3.66334,3.66334,0,0,1-1.61829,2.99,6.69135,6.69135,0,0,1-4.17992,1.23575,7.15783,7.15783,0,0,1-5.08077-1.88764,12.40463,12.40463,0,0,1-3.14623-5.21508l-7.05779,2.69759a33.80853,33.80853,0,0,0,2.09,3.43878,12.9988,12.9988,0,0,0,3.05624,3.10216,16.03478,16.03478,0,0,0,4.54209,2.24716,21.00632,21.00632,0,0,0,6.49576.8771,25.903,25.903,0,0,0,7.68659-.9893,14.09256,14.09256,0,0,0,5.125-2.71969,10.02089,10.02089,0,0,0,2.85479-4.06857,14.08152,14.08152,0,0,0,.87642-4.9898A9.16556,9.16556,0,0,0,482.55408,92.09,13.43484,13.43484,0,0,0,479.47487,88.404Zm35.24585,10.13687a10.13584,10.13584,0,0,1-.76495.89919,13.32753,13.32753,0,0,1-1.23489,1.16953,10.10712,10.10712,0,0,1-1.4398,1.01141,2.83925,2.83925,0,0,1-1.415.4266,2.02066,2.02066,0,0,1-1.7542-.89919,3.67034,3.67034,0,0,1-.62905-2.15791v-26.479h10.11575v-4.9898H507.48284V54.43976h-.50808a8.85852,8.85852,0,0,0-8.03358,5.36567l-.02283.0508a19.20368,19.20368,0,0,1-2.74184,4.45105,12.83007,12.83007,0,0,1-3.55087,3.012,8.33963,8.33963,0,0,1-4.15868,1.10151v4.09061h6.563V99.34994a12.20221,12.20221,0,0,0,.65188,4.09153,8.64038,8.64038,0,0,0,1.9327,3.16932,8.73186,8.73186,0,0,0,3.23819,2.0678,12.68529,12.68529,0,0,0,4.51727.742,18.02307,18.02307,0,0,0,4.83341-.58473,14.11189,14.11189,0,0,0,3.70812-1.59614,13.32746,13.32746,0,0,0,2.85492-2.38232,24.36094,24.36094,0,0,0,2.27-2.945ZM401.15291,48.35536c-3.71134,0-6.71993,2.71308-6.71993,6.0599s3.00859,6.06,6.71993,6.06,6.71981-2.71314,6.71981-6.06S404.86412,48.35536,401.15291,48.35536ZM395.00389,82.59v25.9314h12.40692V66.30793l-.00321.00092A16.88718,16.88718,0,0,0,395.00389,82.59Z" transform="translate(-15.20417 -11.35161)"/><path class="cls-5" d="M518.39941,55.2251H516.5v-.66651h4.55518v.66651H519.147v5.33838h-.74756Z" transform="translate(-15.20417 -11.35161)"/><path class="cls-5" d="M527.17529,55.56689l-2.04345,4.99659h-.30616L522.791,55.56689v4.99659H522.044V54.55859h1.07128l1.86377,4.57325,1.87256-4.57325h1.07129v6.00489h-.74756Z" transform="translate(-15.20417 -11.35161)"/></g></g></svg>