<?xml version="1.0" encoding="UTF-8"?> <svg xmlns="http://www.w3.org/2000/svg" viewBox="0 0 105.29 56.68"><defs><style>.cls-1{fill:#76bcf9;}</style></defs><title>Asset 6</title><g id="Layer_2" data-name="Layer 2"><g id="Layer_1-2" data-name="Layer 1"><path class="cls-1" d="M52.67,56.67h-46c-.78,0-1.57,0-2.34-.06A4.14,4.14,0,0,1,.15,52.74,11.44,11.44,0,0,1,0,50.8Q0,28.38,0,6a12.64,12.64,0,0,1,.14-2A4.14,4.14,0,0,1,4.33.07C5,0,5.69,0,6.37,0H99a15.7,15.7,0,0,1,2.9.24,3.81,3.81,0,0,1,3.21,3.34,12.83,12.83,0,0,1,.19,2.23q0,22.51,0,45c0,.2,0,.39,0,.59-.08,3.53-1.6,5.13-5.14,5.19-3.9.08-7.8,0-11.7,0ZM20.94,53.1h63.4C85.9,43,91.66,37.25,101.7,35.73V20.81A18.36,18.36,0,0,1,89.86,15.4,18.62,18.62,0,0,1,84.43,3.57H20.94C19.39,13.65,13.62,19.4,3.55,20.94V35.73C13.63,37.25,19.39,43,20.94,53.1ZM88,53.1c.24,0,.4,0,.55,0,3.77,0,7.53,0,11.3,0,1.75,0,1.9-.19,1.91-2,0-2.86,0-5.72,0-8.57v-3.1C95.92,39.51,88.62,44.77,88,53.1Zm13.71-35.92c0-.18,0-.37,0-.56,0-3.73,0-7.46,0-11.19,0-1.71-.17-1.9-1.9-1.91-3.77,0-7.53,0-11.29,0a3.32,3.32,0,0,0-.55.09C88.59,11.72,95.76,17.13,101.73,17.18ZM3.56,39.48a5.48,5.48,0,0,0-.05.57c0,3.73,0,7.46,0,11.19,0,1.71.17,1.89,1.9,1.9,3.77,0,7.53,0,11.3,0a3.41,3.41,0,0,0,.54-.1C16.64,44.64,9.19,39.47,3.56,39.48Zm0-22.26a14.79,14.79,0,0,0,13.7-13.6A1,1,0,0,0,17,3.53c-4.05,0-8.1,0-12.16,0-.95,0-1.26.53-1.26,1.34C3.53,9,3.53,13.05,3.53,17.22Z"></path><path class="cls-1" d="M72.27,28.36A19.63,19.63,0,1,1,52.72,8.7,19.69,19.69,0,0,1,72.27,28.36Zm-3.51,0A16.12,16.12,0,1,0,52.63,44.45,16.18,16.18,0,0,0,68.76,28.34Z"></path><path class="cls-1" d="M54.21,38v2.67H51.9V38.35l-6.15-1.7,1.55-3c1.78.33,3.44.7,5.12.94a3.38,3.38,0,0,0,1.7-.32,1.78,1.78,0,0,0,.44-3.14,13.69,13.69,0,0,0-2.43-1.19,27,27,0,0,1-3-1.38,5.07,5.07,0,0,1-2.53-5.64,5.3,5.3,0,0,1,4.28-4.28c.31-.09.62-.14,1-.23V16H54.2v2.18l5.31,1.65L57.9,23A31.29,31.29,0,0,0,54.55,22a9.73,9.73,0,0,0-2.8,0,1.92,1.92,0,0,0-.59,3.67c.68.37,1.44.59,2.14.92a22.63,22.63,0,0,1,3.13,1.52,5,5,0,0,1,2.3,5.12,5.21,5.21,0,0,1-3.55,4.37C54.88,37.73,54.57,37.82,54.21,38Z"></path></g></g></svg> 