<?xml version="1.0" encoding="UTF-8"?> <svg xmlns="http://www.w3.org/2000/svg" viewBox="0 0 86.16 79.04"><defs><style>.cls-1{fill:#76bcf9;}</style></defs><title>Asset 9</title><g id="Layer_2" data-name="Layer 2"><g id="Layer_1-2" data-name="Layer 1"><path class="cls-1" d="M56,9.21V4.1c0-2.47.17-2.64,2.65-2.64,3.33,0,6.66,0,10,0,1.22,0,1.74.52,1.74,1.75,0,5.34,0,10.68,0,16a1.16,1.16,0,0,0,.53,1.06c3.36,2.46,6.69,5,10.06,7.42a2.05,2.05,0,0,1,.93,1.88c0,1.55,0,3.11,0,4.67A1.47,1.47,0,0,1,80.23,36h-4v34.5h2.53c1.23,0,1.74.52,1.74,1.75v4h5.7V79H0V76.23H5.71V72.3c0-1.38.47-1.84,1.86-1.84H10V36H6c-1.24,0-1.76-.52-1.76-1.74,0-1.56,0-3.11,0-4.67a2,2,0,0,1,.92-1.81L38.37,3.16,41.89.55c1-.73,1.4-.73,2.38,0l11,8.17ZM37.37,70.4H73.22V36H13V70.4h5.66V50.31H15.83V47.5H40.16v2.85H37.37ZM79,33.05c0-.85,0-1.64,0-2.42a1.29,1.29,0,0,0-.63-1.23Q61,16.54,43.66,3.65a.81.81,0,0,0-1.16,0Q26.9,15.26,11.28,26.81c-.18.13-.35.28-.66.54h54v2.89H7.19v2.81ZM34.41,70.42v-20H21.56v20Zm43.14,3H8.64v2.79H77.55ZM67.47,17.73v-9H58.9c0,.84,0,1.65,0,2.46a.73.73,0,0,0,.29.45C61.92,13.62,64.65,15.64,67.47,17.73Zm0-13.35H59V5.73h8.53Z"></path><path class="cls-1" d="M57.43,67.58H47.8c-1.34,0-1.84-.48-1.84-1.8V49.26c0-1.32.49-1.8,1.84-1.8H67.12c1.37,0,1.84.48,1.84,1.87V65.71c0,1.41-.47,1.87-1.91,1.87ZM48.89,50.36V56H56V50.36Zm10,5.67H66V50.37h-7.1ZM56,59H48.87v5.65H56Zm10,0H59v5.66h7.09Z"></path><path class="cls-1" d="M18.62,38.87v2.78h-2.8V38.87Z"></path><path class="cls-1" d="M70.36,41.67H67.58V38.88h2.78Z"></path><path class="cls-1" d="M35.93,21.53V18.74H50.24v2.79Z"></path><path class="cls-1" d="M40.24,15.79V13h5.68v2.78Z"></path><path class="cls-1" d="M28.74,61.77V59h2.81v2.77Z"></path></g></g></svg> 