<?xml version="1.0" encoding="UTF-8"?> <svg xmlns="http://www.w3.org/2000/svg" viewBox="0 0 181 181"><defs><style>.cls-1{fill:#f1f9fe;}.cls-2{fill:#76bcf9;}</style></defs><title>Asset 10</title><g id="Layer_2" data-name="Layer 2"><g id="Layer_1-2" data-name="Layer 1"><circle class="cls-1" cx="90.5" cy="90.5" r="90.5"></circle><path class="cls-2" d="M43,29.49h86.81v7.05h7v7h6.87V45q0,45.29,0,90.56a2.89,2.89,0,0,1-.73,1.81q-10.14,10.23-20.38,20.38a2.54,2.54,0,0,1-1.59.7q-31.56.06-63.13,0c-.27,0-.54,0-1-.06V154c0-2.53,0-2.53-2.59-2.53H50.07v-7.14c-2,0-3.87-.07-5.72,0C43.26,144.36,43,144,43,143Q43,105,43,67.1V29.49Zm2.8,2.81v1.31q0,53.28,0,106.54c0,1.08.3,1.36,1.36,1.36q28.77-.06,57.53,0h1.37v-21H127V32.3ZM134,39.37h-2.49c-1.65,0-1.65,0-1.65,1.6q0,39.44,0,78.87a5.18,5.18,0,0,1-1.92,4.52c-1.11.91-2.06,2-3.2,3.16H134Zm6.93,95.18V48.89c0-2.51,0-2.51-2.5-2.51-1.56,0-1.56,0-1.56,1.57q0,40.18,0,80.38a2.71,2.71,0,0,1-.92,2.24c-1.34,1.2-2.6,2.49-4.14,4Zm-88,14H113v-9.29c-1.47,1.5-2.77,2.76-4,4.1a2.74,2.74,0,0,1-2.23.94q-26.15,0-52.29,0H52.9Zm6.86,7h60.08v-8.91c-1.41,1.42-2.67,2.61-3.84,3.89a2.71,2.71,0,0,1-2.24.92q-26.24,0-52.48,0H59.76Zm64.79-32.18H108.93V139Zm-8.69,22.83,15.79-15.77c-3.07,0-6.24,0-9.41,0a1.07,1.07,0,0,0-.69.35q-2.67,2.61-5.28,5.27a1.32,1.32,0,0,0-.39.8C115.85,140,115.86,143.14,115.86,146.19Zm22.82-8.77c-3.1,0-6.08,0-9.07,0a1.85,1.85,0,0,0-1.08.55c-1.75,1.71-3.5,3.43-5.18,5.2a2.47,2.47,0,0,0-.6,1.52c-.06,2.6,0,5.2,0,7.81,0,.28.07.55.09.72Z"></path><path class="cls-2" d="M105.58,60.57A17.79,17.79,0,1,1,87.84,42.73,17.76,17.76,0,0,1,105.58,60.57Zm-17.8-15a15,15,0,1,0,15,14.95A14.92,14.92,0,0,0,87.78,45.52Z"></path><path class="cls-2" d="M65.67,89.19V86.52h44.2v2.67Z"></path><path class="cls-2" d="M65.64,100.15V97.51h44.24v2.64Z"></path><path class="cls-2" d="M109.9,108.46v2.65H65.69v-2.65Z"></path><path class="cls-2" d="M79.45,60.6h2.67v5.87H93.39V60.66h2.76v8.59H79.45Z"></path><path class="cls-2" d="M87.81,61.52a4.91,4.91,0,1,1,4.89-4.88A4.91,4.91,0,0,1,87.81,61.52Zm2.08-5a2.09,2.09,0,0,0-2.18-2.07,2.12,2.12,0,0,0-2,2.12,2.06,2.06,0,0,0,2.14,2.1A2,2,0,0,0,89.89,56.57Z"></path></g></g></svg> 