<?xml version="1.0" encoding="UTF-8"?> <svg xmlns="http://www.w3.org/2000/svg" viewBox="0 0 181 181"><defs><style>.cls-1{fill:#f1f9fe;}.cls-2{fill:#76bcf9;}</style></defs><title>Asset 11</title><g id="Layer_2" data-name="Layer 2"><g id="Layer_1-2" data-name="Layer 1"><circle class="cls-1" cx="90.5" cy="90.5" r="90.5"></circle><path class="cls-2" d="M24.68,47.05H154.17v91.66H24.68Zm3.84,87.76H150.26V72.14H28.52ZM150.23,68.1V51H28.59V68.1Z"></path><path class="cls-2" d="M68.6,118.58c-3.9,0-7.79,0-11.69,0-4.87,0-8.08-3.26-8.09-8.14q0-8.43,0-16.84A7.76,7.76,0,0,1,57,85.45q10.36,0,20.73,0c.42,0,1-.1,1.21.13.59.56,1.34,1.23,1.44,1.94.13,1-.63,1.7-1.72,1.81-.41,0-.83,0-1.25,0q-10,0-20,0c-3.17,0-4.59,1.43-4.6,4.58v16.28c0,3,1.43,4.44,4.42,4.44q11.63,0,23.24,0c2.91,0,4.3-1.43,4.31-4.37,0-2.6,0-5.19,0-7.79,0-1.5.75-2.37,1.94-2.38s1.87.78,1.87,2.38c0,2.64,0,5.29,0,7.93,0,4.89-3.23,8.12-8.1,8.14C76.48,118.59,72.54,118.58,68.6,118.58Z"></path><path class="cls-2" d="M68.81,103.59l12.44-9.35C84.18,92,87.1,89.83,90,87.65c1.19-.88,2.07-.81,2.78.13a2,2,0,0,1-.43,3Q80.11,100,67.83,109.24a3,3,0,0,1-.53.21c-.36-.72-.73-1.45-1.09-2.18-1.85-3.68-3.7-7.36-5.52-11a2.12,2.12,0,0,1,.67-3c1-.5,2.13,0,2.82,1.29.2.36.38.74.57,1.11C66.07,98.2,67.38,100.79,68.81,103.59Z"></path><path class="cls-2" d="M136.32,95v3.71H96V95Z"></path><path class="cls-2" d="M95.92,105.39h25.74v3.84h-1.51c-7.54,0-15.09,0-22.64,0-1.28,0-1.76-.34-1.61-1.62A18.61,18.61,0,0,0,95.92,105.39Z"></path><path class="cls-2" d="M110.48,61.27V56.21h5v5.06Z"></path><path class="cls-2" d="M123.74,61.22v-5h5.13v5Z"></path><path class="cls-2" d="M137.07,61.25v-5h5.09v5Z"></path></g></g></svg> 